{
	"asset":{
		"generator":"Khronos glTF Blender I/O v4.1.63",
		"version":"2.0"
	},
	"scene":0,
	"scenes":[
		{
			"name":"Scene",
			"nodes":[
				0
			]
		}
	],
	"nodes":[
		{
			"mesh":0,
			"name":"Cylinder.007",
			"scale":[
				0.04036315903067589,
				0.04036315903067589,
				0.04036315903067589
			],
			"translation":[
				0.21667158603668213,
				-0.028523506596684456,
				0.14147990942001343
			]
		}
	],
	"materials":[
		{
			"doubleSided":true,
			"name":"Material",
			"pbrMetallicRoughness":{
				"baseColorTexture":{
					"index":0
				},
				"metallicFactor":0,
				"roughnessFactor":0.5
			}
		},
		{
			"doubleSided":true,
			"name":"Material.001",
			"pbrMetallicRoughness":{
				"baseColorFactor":[
					0.03272366523742676,
					0,
					0.00656380970031023,
					1
				],
				"metallicFactor":0
			}
		}
	],
	"meshes":[
		{
			"name":"Cylinder.009",
			"primitives":[
				{
					"attributes":{
						"POSITION":0,
						"NORMAL":1,
						"TEXCOORD_0":2
					},
					"indices":3,
					"material":0
				},
				{
					"attributes":{
						"POSITION":4,
						"NORMAL":5,
						"TEXCOORD_0":6
					},
					"indices":7,
					"material":1
				}
			]
		}
	],
	"textures":[
		{
			"sampler":0,
			"source":0
		}
	],
	"images":[
		{
			"mimeType":"image/png",
			"name":"Material Base Color",
			"uri":"Material%20Base%20Color.png"
		}
	],
	"accessors":[
		{
			"bufferView":0,
			"componentType":5126,
			"count":5932,
			"max":[
				16.0843448638916,
				2.089329719543457,
				1.03825843334198
			],
			"min":[
				-54.38425827026367,
				-6.983598232269287,
				-6.168675422668457
			],
			"type":"VEC3"
		},
		{
			"bufferView":1,
			"componentType":5126,
			"count":5932,
			"type":"VEC3"
		},
		{
			"bufferView":2,
			"componentType":5126,
			"count":5932,
			"type":"VEC2"
		},
		{
			"bufferView":3,
			"componentType":5123,
			"count":15798,
			"type":"SCALAR"
		},
		{
			"bufferView":4,
			"componentType":5126,
			"count":236,
			"max":[
				47.380794525146484,
				1.068101167678833,
				-0.9384379386901855
			],
			"min":[
				-3.7675580978393555,
				-14.881972312927246,
				-5.925597667694092
			],
			"type":"VEC3"
		},
		{
			"bufferView":5,
			"componentType":5126,
			"count":236,
			"type":"VEC3"
		},
		{
			"bufferView":6,
			"componentType":5126,
			"count":236,
			"type":"VEC2"
		},
		{
			"bufferView":7,
			"componentType":5123,
			"count":855,
			"type":"SCALAR"
		}
	],
	"bufferViews":[
		{
			"buffer":0,
			"byteLength":71184,
			"byteOffset":0,
			"target":34962
		},
		{
			"buffer":0,
			"byteLength":71184,
			"byteOffset":71184,
			"target":34962
		},
		{
			"buffer":0,
			"byteLength":47456,
			"byteOffset":142368,
			"target":34962
		},
		{
			"buffer":0,
			"byteLength":31596,
			"byteOffset":189824,
			"target":34963
		},
		{
			"buffer":0,
			"byteLength":2832,
			"byteOffset":221420,
			"target":34962
		},
		{
			"buffer":0,
			"byteLength":2832,
			"byteOffset":224252,
			"target":34962
		},
		{
			"buffer":0,
			"byteLength":1888,
			"byteOffset":227084,
			"target":34962
		},
		{
			"buffer":0,
			"byteLength":1710,
			"byteOffset":228972,
			"target":34963
		}
	],
	"samplers":[
		{
			"magFilter":9729,
			"minFilter":9987
		}
	],
	"buffers":[
		{
			"byteLength":230684,
			"uri":"shotgun.bin"
		}
	]
}
