<?xml version="1.0" encoding="UTF-8" standalone="no"?>
<!-- Created with Inkscape (http://www.inkscape.org/) -->

<svg
   width="16"
   height="16"
   viewBox="0 0 16 16"
   version="1.1"
   id="svg1"
   xmlns="http://www.w3.org/2000/svg"
   xmlns:svg="http://www.w3.org/2000/svg">
  <defs
     id="defs1">
    <linearGradient
       id="swatch17">
      <stop
         style="stop-color:#000000;stop-opacity:1;"
         offset="0"
         id="stop17" />
    </linearGradient>
  </defs>
  <path
     style="fill:#000000;fill-opacity:0.99484539;stroke:none;stroke-width:0.965;stroke-linejoin:round;stroke-dasharray:none;stroke-opacity:1;paint-order:stroke fill markers"
     d="m 13.216224,13.216224 -2.383348,-2.241927 1.046518,-3.0829853 2.33683,2.3249123 z"
     id="path19" />
  <path
     fill="#fc7f7f"
     d="m 11.677509,0 c 1.799548,3.1782521e-7 2.67138,2.0466985 1.94729,4.5714286 l -1.96662,6.8571424 C 10.934089,13.953302 8.8882755,16.000001 7.0887267,16 H 2.2011714 C 0.40162274,16 -0.47020892,13.953302 0.25388098,11.428571 L 2.2205011,4.5714286 C 2.9445907,2.0466983 4.9904036,2.4105685e-8 6.7899521,0 Z"
     id="path1"
     style="stroke:none;stroke-width:0.965;stroke-dasharray:none;stroke-opacity:1" />
  <path
     id="rect7"
     style="display:inline;fill:#fc7f7f;stroke:none;stroke-width:2.54776;stroke-linejoin:round;paint-order:stroke fill markers"
     transform="matrix(0.98868611,-0.14999928,0.58844446,0.80853764,0,0)"
     d="m 2.961212,15.705809 2.9558766,-3.266976 0.701768,3.630702 -2.6516774,4.455266 z" />
  <path
     style="fill:#000000;fill-opacity:1;stroke-width:0.042879;stroke-linejoin:round;paint-order:stroke fill markers"
     d="M 2.7930024,10.210265 C 2.584334,10.096953 2.4703397,9.8168254 2.4962097,9.4809327 2.5170714,9.2100661 3.1956006,6.8454824 3.3383679,6.5461234 3.5604445,6.0804664 3.9771304,5.7417071 4.3278284,5.7417071 c 0.3584387,0 0.5584185,0.2935232 0.5299334,0.7778174 -0.018362,0.3121928 -0.673612,2.600851 -0.845332,2.952579 -0.1379014,0.2824583 -0.4371686,0.6047295 -0.6603346,0.7110915 -0.1923727,0.09169 -0.4198205,0.102699 -0.5590928,0.02707 z"
     id="path14" />
  <path
     style="fill:#000000;fill-opacity:1;stroke-width:0.042879;stroke-linejoin:round;paint-order:stroke fill markers"
     d="M 4.6803837,14.823166 C 3.9902776,14.712656 3.4722352,14.321583 3.1447658,13.663919 3.0136287,13.400553 3.012301,13.395062 3.0148319,13.126518 c 0.00217,-0.230307 0.015802,-0.306686 0.090187,-0.505317 0.1596745,-0.426381 0.4362599,-0.768301 0.755784,-0.934313 0.2073769,-0.107745 0.4730711,-0.106871 0.6159767,0.002 0.060412,0.04604 0.1458386,0.160411 0.2076135,0.277969 0.1328239,0.252764 0.2925591,0.417467 0.5069752,0.522743 0.1514654,0.07437 0.1956668,0.08257 0.4372016,0.08114 0.4570164,-0.0027 0.7847267,-0.155038 1.2977856,-0.603263 0.4887443,-0.426983 0.8121885,-0.485633 1.0684697,-0.193745 0.1234385,0.140588 0.1652537,0.281013 0.1620038,0.54404 -0.00341,0.275834 -0.037899,0.40972 -0.185805,0.721249 -0.1005517,0.211789 -0.1533658,0.279148 -0.443535,0.565685 -0.6220034,0.614219 -1.3421851,1.032886 -2.0231591,1.176133 -0.24726,0.05201 -0.6380151,0.07207 -0.8239463,0.0423 z"
     id="path16" />
  <path
     style="fill:#000000;fill-opacity:1;stroke-width:0.042879;stroke-linejoin:round;paint-order:stroke fill markers"
     d="M 9.3474258,10.227774 C 9.2272549,10.175413 9.0877848,10.00665 9.0472158,9.864511 9.0282871,9.7981923 9.0138569,9.648472 9.0151486,9.5317994 9.0171796,9.3483595 9.0658267,9.1520163 9.3748166,8.0801556 9.5713422,7.3984242 9.7582338,6.7708909 9.7901313,6.6856373 9.8695676,6.4733246 10.100807,6.1353591 10.26146,5.9967705 c 0.214356,-0.1849152 0.406093,-0.2631753 0.61257,-0.2500279 0.225177,0.014338 0.337448,0.092539 0.435772,0.303531 0.06258,0.1342932 0.07317,0.194357 0.07024,0.3985402 -0.0031,0.2184618 -0.03613,0.3535986 -0.361298,1.4798365 C 10.610085,9.3440447 10.588886,9.4063474 10.434878,9.6446282 10.131069,10.11468 9.6634144,10.365459 9.3474258,10.227774 Z"
     id="path17" />
</svg>
