{
	"asset":{
		"generator":"Khronos glTF Blender I/O v4.4.55",
		"version":"2.0"
	},
	"scene":0,
	"scenes":[
		{
			"name":"Scene",
			"nodes":[
				0
			]
		}
	],
	"nodes":[
		{
			"mesh":0,
			"name":"Text"
		}
	],
	"meshes":[
		{
			"name":"Text",
			"primitives":[
				{
					"attributes":{
						"POSITION":0,
						"NORMAL":1,
						"TEXCOORD_0":2
					},
					"indices":3
				}
			]
		}
	],
	"accessors":[
		{
			"bufferView":0,
			"componentType":5126,
			"count":11628,
			"max":[
				2.496500253677368,
				0.10000000149011612,
				0.8090000152587891
			],
			"min":[
				-2.488499879837036,
				-0.10000000149011612,
				-0.8820000290870667
			],
			"type":"VEC3"
		},
		{
			"bufferView":1,
			"componentType":5126,
			"count":11628,
			"type":"VEC3"
		},
		{
			"bufferView":2,
			"componentType":5126,
			"count":11628,
			"type":"VEC2"
		},
		{
			"bufferView":3,
			"componentType":5123,
			"count":34692,
			"type":"SCALAR"
		}
	],
	"bufferViews":[
		{
			"buffer":0,
			"byteLength":139536,
			"byteOffset":0,
			"target":34962
		},
		{
			"buffer":0,
			"byteLength":139536,
			"byteOffset":139536,
			"target":34962
		},
		{
			"buffer":0,
			"byteLength":93024,
			"byteOffset":279072,
			"target":34962
		},
		{
			"buffer":0,
			"byteLength":69384,
			"byteOffset":372096,
			"target":34963
		}
	],
	"buffers":[
		{
			"byteLength":441480,
			"uri":"welcometothe21stcentury.bin"
		}
	]
}
